<svg width="67" height="67" viewBox="0 0 67 67" fill="none" xmlns="http://www.w3.org/2000/svg">
<rect width="67" height="67" fill="black"/>
<path d="M46.984 53.7972C47.0694 53.7225 47.4 53.7599 47.976 53.9092C48.2107 53.9625 48.3707 54.0105 48.456 54.0532C48.5414 54.0959 48.6054 54.1599 48.648 54.2452C48.712 54.3625 48.7227 54.5172 48.68 54.7092C48.6374 54.9012 48.5627 55.0292 48.456 55.0932C48.36 55.1572 48.184 55.3225 47.928 55.5892C47.672 55.8559 47.544 56.0052 47.544 56.0372C47.544 56.0692 47.416 56.2185 47.16 56.4852C46.9147 56.7412 46.792 56.8959 46.792 56.9492C46.792 56.9919 46.9254 57.0559 47.192 57.1412C47.384 57.2052 47.5014 57.2532 47.544 57.2852C47.5867 57.3172 47.6294 57.3919 47.672 57.5092C47.704 57.6479 47.6987 57.7972 47.656 57.9572C47.6134 58.1172 47.5387 58.2292 47.432 58.2932C47.272 58.4319 46.9947 58.4265 46.6 58.2772C46.4187 58.2239 46.1414 58.1919 45.768 58.1812C45.3947 58.1705 45.08 58.1919 44.824 58.2452C44.664 58.2772 44.5574 58.3145 44.504 58.3572C44.4507 58.3999 44.392 58.4745 44.328 58.5812C44.168 58.8905 43.9494 58.9225 43.672 58.6772C43.512 58.5599 43.3894 58.3945 43.304 58.1812C43.2294 57.9572 43.1174 57.5092 42.968 56.8372C42.8827 56.4639 42.8027 56.1919 42.728 56.0212C42.664 55.8505 42.632 55.7012 42.632 55.5732C42.632 55.4452 42.6107 55.3599 42.568 55.3172C42.4934 55.2425 42.456 55.1305 42.456 54.9812C42.456 54.8212 42.488 54.7039 42.552 54.6292C42.776 54.3732 43.192 54.1652 43.8 54.0052C44.1734 53.9305 44.7867 53.8825 45.64 53.8612C46.504 53.8399 46.952 53.8185 46.984 53.7972ZM45.832 54.6292C45.48 54.6292 45.256 54.6239 45.16 54.6132C45.0747 54.5919 44.984 54.5919 44.888 54.6132C44.184 54.7519 43.7574 54.8852 43.608 55.0132L43.4 55.1572L43.512 55.4772C43.5974 55.6905 43.6774 55.8879 43.752 56.0692C43.8267 56.2399 43.896 56.4692 43.96 56.7572L44.072 57.1892L44.44 57.1412C44.696 57.1092 44.8347 57.0879 44.856 57.0772C44.888 57.0559 45.032 56.8745 45.288 56.5332C45.5547 56.1812 45.704 55.9945 45.736 55.9732C45.768 55.9412 45.8534 55.8079 45.992 55.5732C46.1307 55.3279 46.2 55.1945 46.2 55.1732C46.2 55.1305 46.232 55.0825 46.296 55.0292C46.36 54.9759 46.392 54.8959 46.392 54.7892C46.392 54.7145 46.3654 54.6719 46.312 54.6612C46.2587 54.6399 46.0987 54.6292 45.832 54.6292ZM39.944 48.6292C40.0187 48.5652 40.0667 48.5385 40.088 48.5492C40.12 48.5599 40.2374 48.6132 40.44 48.7092C40.6534 48.8479 40.8294 49.0185 40.968 49.2212L41.192 49.5412L41.08 49.8932C41.0054 50.1065 40.968 50.2559 40.968 50.3412C40.968 50.4159 40.92 50.5705 40.824 50.8052L40.44 51.8932C40.2694 52.3625 40.1627 52.6399 40.12 52.7252C40.0774 52.8105 40.0187 52.9385 39.944 53.1092C39.88 53.2265 39.8534 53.3012 39.864 53.3332C39.8747 53.3545 39.912 53.3652 39.976 53.3652C40.0827 53.3652 40.2427 53.3439 40.456 53.3012C40.5947 53.2905 40.6854 53.2745 40.728 53.2532C40.7707 53.2212 40.8027 53.1625 40.824 53.0772C40.856 52.9279 40.9307 52.8479 41.048 52.8372C41.176 52.8265 41.2774 52.8372 41.352 52.8692C41.4267 52.9012 41.4854 52.9119 41.528 52.9012C41.5707 52.8905 41.64 52.9225 41.736 52.9972C41.8427 53.0612 41.9494 53.0932 42.056 53.0932C42.1627 53.0932 42.2747 53.1359 42.392 53.2212C42.5734 53.3599 42.6427 53.5359 42.6 53.7492C42.5574 53.9625 42.4187 54.1012 42.184 54.1652C42.0134 54.2079 41.864 54.3305 41.736 54.5332C41.5547 54.8105 41.384 55.1412 41.224 55.5252C41.0854 55.8879 40.984 56.1065 40.92 56.1812C40.856 56.2559 40.824 56.3305 40.824 56.4052C40.824 56.4692 40.7707 56.6079 40.664 56.8212C40.568 56.9812 40.5254 57.0932 40.536 57.1572C40.5467 57.2212 40.6587 57.3492 40.872 57.5412C41.1387 57.8185 41.4107 58.1385 41.688 58.5012C41.976 58.8639 42.12 59.0772 42.12 59.1412C42.12 59.1732 42.168 59.2585 42.264 59.3972C42.488 59.6959 42.536 59.9625 42.408 60.1972C42.344 60.3039 42.312 60.4265 42.312 60.5652C42.312 60.7785 42.216 60.9652 42.024 61.1252C41.832 61.2852 41.6507 61.3225 41.48 61.2372C41.3947 61.2052 41.3094 61.1412 41.224 61.0452C41.1387 60.9492 41.096 60.8692 41.096 60.8052C41.096 60.7625 41.0534 60.6879 40.968 60.5812C40.872 60.4532 40.7707 60.2879 40.664 60.0852C40.5574 59.8825 40.504 59.7492 40.504 59.6852C40.504 59.6319 40.472 59.5839 40.408 59.5412C40.344 59.4879 40.296 59.3919 40.264 59.2532C40.2534 59.1465 40.1734 58.9705 40.024 58.7252C39.8747 58.4799 39.768 58.3359 39.704 58.2932C39.672 58.2719 39.4107 58.3839 38.92 58.6292C38.5894 58.7785 38.248 58.9119 37.896 59.0292C37.5547 59.1465 36.952 59.3225 36.088 59.5572C35.8534 59.6212 35.72 59.6479 35.688 59.6372C35.688 59.6265 35.72 59.5999 35.784 59.5572C35.8587 59.5145 35.9547 59.4559 36.072 59.3812C36.2 59.3065 36.3334 59.2372 36.472 59.1732C37.016 58.8639 37.432 58.6079 37.72 58.4052C37.9867 58.2239 38.248 58.0052 38.504 57.7492C38.7707 57.4932 38.8934 57.3385 38.872 57.2852C38.8507 57.2319 38.7494 57.1465 38.568 57.0292C38.3974 56.9012 38.1787 56.8372 37.912 56.8372C37.624 56.8372 37.448 56.8212 37.384 56.7892C37.32 56.7465 37.288 56.6505 37.288 56.5012C37.288 56.3199 37.3094 56.2185 37.352 56.1972C37.3947 56.1759 37.416 56.1172 37.416 56.0212C37.416 55.9252 37.448 55.8132 37.512 55.6852C37.576 55.5572 37.608 55.4612 37.608 55.3972C37.608 55.3332 37.6454 55.2319 37.72 55.0932L37.832 54.8852L37.544 54.9332C37.3627 54.9545 37.128 55.0132 36.84 55.1092C36.5627 55.1945 36.424 55.2532 36.424 55.2852C36.424 55.3172 36.344 55.3599 36.184 55.4132C36.0347 55.4665 35.8854 55.5625 35.736 55.7012C35.5867 55.8399 35.4587 55.9092 35.352 55.9092C35.2454 55.9092 35.0747 55.8345 34.84 55.6852C34.616 55.5359 34.4987 55.4239 34.488 55.3492C34.4667 55.2425 34.792 55.0345 35.464 54.7252C36.1467 54.4159 36.8454 54.1652 37.56 53.9732C37.88 53.8879 38.104 53.8132 38.232 53.7492C38.36 53.6745 38.424 53.5892 38.424 53.4932C38.424 53.4079 38.4454 53.3545 38.488 53.3332C38.5307 53.3012 38.5627 53.2159 38.584 53.0772C38.6694 52.6399 38.7814 52.2985 38.92 52.0532C38.952 51.9785 39.0214 51.7759 39.128 51.4452C39.2347 51.1039 39.3147 50.9012 39.368 50.8372C39.4534 50.6665 39.5387 50.4052 39.624 50.0532C39.72 49.6905 39.7787 49.3652 39.8 49.0772C39.8214 48.8212 39.8694 48.6719 39.944 48.6292ZM40.44 54.4692C40.44 54.3732 40.408 54.3252 40.344 54.3252C40.2907 54.3145 40.12 54.3359 39.832 54.3892C39.6614 54.4319 39.5174 54.5012 39.4 54.5972C39.2934 54.6825 39.2347 54.7785 39.224 54.8852C39.224 54.9385 39.1547 55.0559 39.016 55.2372C38.888 55.4079 38.824 55.5145 38.824 55.5572C38.824 55.5999 38.8934 55.6745 39.032 55.7812C39.1814 55.8772 39.3147 55.9785 39.432 56.0852C39.56 56.1812 39.6347 56.2292 39.656 56.2292C39.6774 56.2292 39.7787 56.0425 39.96 55.6692C40.28 54.9972 40.44 54.5972 40.44 54.4692Z" fill="white"/>
<path d="M55.3782 47.6331C55.6022 47.6118 56.0129 47.5958 56.6102 47.5851C57.0155 47.5851 57.2982 47.5958 57.4582 47.6171C57.6289 47.6278 57.8369 47.6704 58.0822 47.7451C58.6902 47.9264 59.0635 48.0864 59.2022 48.2251C59.2555 48.2998 59.2822 48.5024 59.2822 48.8331C59.2929 49.1531 59.2715 49.3398 59.2182 49.3931C59.1862 49.4464 59.1329 49.6011 59.0582 49.8571C58.9942 50.1131 58.9462 50.3584 58.9142 50.5931C58.8715 50.9131 58.7915 51.1904 58.6742 51.4251C58.5675 51.6598 58.4449 51.8038 58.3062 51.8571C58.1355 51.9424 58.0075 51.9798 57.9222 51.9691C57.8369 51.9584 57.7355 51.9104 57.6182 51.8251C57.5222 51.7398 57.4422 51.6918 57.3782 51.6811C57.3142 51.6598 57.1702 51.6544 56.9462 51.6651C56.6369 51.7078 56.4609 51.7558 56.4182 51.8091C56.3862 51.8518 56.3702 51.9851 56.3702 52.2091V52.5451H56.8662C57.1755 52.5451 57.6449 52.5771 58.2742 52.6411C58.9142 52.6944 59.3195 52.7424 59.4902 52.7851C59.6502 52.8384 59.7942 52.8918 59.9222 52.9451C60.0502 52.9984 60.2155 53.0518 60.4182 53.1051C60.6209 53.1584 60.8022 53.2704 60.9622 53.4411C61.1009 53.5584 61.1809 53.6758 61.2022 53.7931C61.2235 53.8998 61.1969 54.0224 61.1222 54.1611C61.0689 54.2784 61.0049 54.6091 60.9302 55.1531C60.8662 55.6864 60.7915 56.0704 60.7062 56.3051C60.6315 56.5398 60.4822 56.8651 60.2582 57.2811C60.0449 57.7078 59.8795 57.9798 59.7622 58.0971C59.6342 58.2251 59.5702 58.3104 59.5702 58.3531C59.5702 58.4064 59.5489 58.4331 59.5062 58.4331C59.4635 58.4331 59.3409 58.4864 59.1382 58.5931C58.8715 58.7318 58.6209 58.7904 58.3862 58.7691C58.3329 58.7691 58.2742 58.7104 58.2102 58.5931C58.1569 58.4758 58.1302 58.3584 58.1302 58.2411C58.1302 58.1344 58.0555 58.0384 57.9062 57.9531C57.7675 57.8678 57.6342 57.7344 57.5062 57.5531C57.3782 57.3824 57.2182 57.2278 57.0262 57.0891C56.7489 56.8971 56.6049 56.7371 56.5942 56.6091C56.5942 56.5771 56.6049 56.5611 56.6262 56.5611C56.6795 56.5611 56.8449 56.6251 57.1222 56.7531C57.6875 57.0198 58.0929 57.0571 58.3382 56.8651C58.5089 56.7371 58.6582 56.5238 58.7862 56.2251C58.9142 55.9264 59.0049 55.6011 59.0582 55.2491C59.1329 54.6091 59.1649 54.0918 59.1542 53.6971C59.1435 53.6011 59.0635 53.5318 58.9142 53.4891C58.7755 53.4358 58.5249 53.3771 58.1622 53.3131L57.2502 53.1691C57.0262 53.1371 56.8235 53.1318 56.6422 53.1531L56.3702 53.1851V53.4891C56.3702 53.6811 56.3222 53.8784 56.2262 54.0811C56.1089 54.3158 56.0555 54.4651 56.0662 54.5291C56.0769 54.5824 56.1782 54.6091 56.3702 54.6091C56.8182 54.6091 57.0422 54.5291 57.0422 54.3691C57.0635 54.3371 57.0475 54.2998 56.9942 54.2571C56.9515 54.2038 56.9675 54.1184 57.0422 54.0011C57.0955 53.9051 57.1382 53.8518 57.1702 53.8411C57.2022 53.8198 57.2502 53.8144 57.3142 53.8251C57.4209 53.8464 57.5915 53.8784 57.8262 53.9211C58.0075 53.9638 58.1249 54.0064 58.1782 54.0491C58.2315 54.0811 58.3009 54.1824 58.3862 54.3531C58.6422 54.7904 58.6795 55.1958 58.4982 55.5691C58.4449 55.6651 58.3969 55.7291 58.3542 55.7611C58.3222 55.7931 58.2582 55.8091 58.1622 55.8091C57.9062 55.8091 57.6822 55.6384 57.4902 55.2971C57.4049 55.1264 57.3462 55.0411 57.3142 55.0411C57.2715 55.0411 57.0475 55.2171 56.6422 55.5691C56.4609 55.7291 56.2849 55.8198 56.1142 55.8411C55.9542 55.8624 55.8369 55.9158 55.7622 56.0011C55.6982 56.0758 55.6342 56.1131 55.5702 56.1131C55.5169 56.1131 55.2929 56.2091 54.8982 56.4011C54.6102 56.5398 54.4289 56.6198 54.3542 56.6411C54.2902 56.6518 54.2102 56.6358 54.1142 56.5931C53.7729 56.4224 53.6022 56.2144 53.6022 55.9691C53.6022 55.8198 53.6235 55.7344 53.6662 55.7131C53.7195 55.6918 53.7355 55.6544 53.7142 55.6011C53.7035 55.5371 53.7195 55.4678 53.7622 55.3931C53.8155 55.3078 53.8422 55.2544 53.8422 55.2331C53.8422 55.2118 53.8582 55.1424 53.8902 55.0251C53.9115 54.9504 53.9329 54.9078 53.9542 54.8971C53.9862 54.8758 54.0342 54.8758 54.0982 54.8971C54.1729 54.9184 54.2689 54.8971 54.3862 54.8331C54.5035 54.7691 54.5622 54.7051 54.5622 54.6411C54.5622 54.5878 54.5729 54.5558 54.5942 54.5451C54.6369 54.5131 54.7222 54.3531 54.8502 54.0651C54.9782 53.7771 55.0529 53.5798 55.0742 53.4731C55.0955 53.3558 55.0955 53.2864 55.0742 53.2651C55.0635 53.2438 55.0315 53.2331 54.9782 53.2331C54.8929 53.2331 54.7649 53.2544 54.5942 53.2971C54.4235 53.3291 54.2209 53.3664 53.9862 53.4091C53.7622 53.4518 53.5702 53.5158 53.4102 53.6011L53.1382 53.7291L53.1702 54.4331C53.1702 54.7851 53.2022 55.2064 53.2662 55.6971C53.3409 56.1878 53.4102 56.5238 53.4742 56.7051C53.6449 57.2171 53.7195 57.5371 53.6982 57.6651C53.6662 57.7611 53.6235 57.8198 53.5702 57.8411C53.5169 57.8731 53.4529 57.8624 53.3782 57.8091C53.3035 57.7451 53.1969 57.5851 53.0582 57.3291C52.9302 57.0731 52.8662 56.9024 52.8662 56.8171C52.8662 56.6998 52.8342 56.5398 52.7702 56.3371C52.7169 56.1344 52.6742 55.9051 52.6422 55.6491C52.6209 55.3931 52.5782 55.1638 52.5142 54.9611C52.4502 54.7584 52.4182 54.5664 52.4182 54.3851C52.4182 54.2038 52.3755 54.0704 52.2902 53.9851C52.2155 53.8998 52.1889 53.8198 52.2102 53.7451C52.2315 53.6278 52.3915 53.4891 52.6902 53.3291C52.9995 53.1584 53.2929 53.0411 53.5702 52.9771C53.7835 52.9344 53.9435 52.8971 54.0502 52.8651C54.1889 52.8118 54.5409 52.7318 55.1062 52.6251C55.1702 52.6144 55.2075 52.5878 55.2182 52.5451C55.2395 52.5024 55.2502 52.3958 55.2502 52.2251C55.2502 51.9691 55.2182 51.8411 55.1542 51.8411C55.0902 51.8411 55.0582 51.8624 55.0582 51.9051C55.0582 51.9371 54.9729 51.9798 54.8022 52.0331C54.6422 52.0758 54.4822 52.0704 54.3222 52.0171C54.2155 51.9638 54.1462 51.9211 54.1142 51.8891C54.0929 51.8571 54.0822 51.7984 54.0822 51.7131C54.0715 51.5744 54.0182 51.3878 53.9222 51.1531C53.8369 50.9184 53.7942 50.7531 53.7942 50.6571C53.7942 50.5504 53.7195 50.2784 53.5702 49.8411C53.4635 49.4998 53.3995 49.2704 53.3782 49.1531C53.3569 49.0358 53.3729 48.9611 53.4262 48.9291C53.4689 48.9078 53.4902 48.8491 53.4902 48.7531C53.4902 48.5931 53.7142 48.3798 54.1622 48.1131C54.6209 47.8358 55.0262 47.6758 55.3782 47.6331ZM57.4742 50.3211C57.5915 49.9798 57.6502 49.5531 57.6502 49.0411C57.6609 48.5291 57.6289 48.2358 57.5542 48.1611C57.4795 48.0864 57.2715 48.0438 56.9302 48.0331L56.4182 48.0171L56.4662 48.3051C56.4982 48.4971 56.5195 48.6518 56.5302 48.7691C56.5409 48.8864 56.5675 48.9664 56.6102 49.0091C56.6529 49.0411 56.7649 49.0891 56.9462 49.1531C57.2769 49.2384 57.4422 49.3664 57.4422 49.5371C57.4422 49.6118 57.3355 49.7024 57.1222 49.8091C56.9195 49.9158 56.7542 49.9531 56.6262 49.9211L56.4502 49.8891L56.4182 50.3371C56.3862 50.6251 56.3809 50.7958 56.4022 50.8491C56.4342 50.8918 56.5142 50.8971 56.6422 50.8651C56.7702 50.8331 56.9142 50.8278 57.0742 50.8491H57.2982L57.4742 50.3211ZM55.5862 48.0811H55.4102C55.2715 48.0811 55.1755 48.1078 55.1222 48.1611C55.0689 48.2144 54.9515 48.2731 54.7702 48.3371C54.5675 48.3798 54.4395 48.4704 54.3862 48.6091C54.3435 48.7371 54.3489 48.9611 54.4022 49.2811C54.4235 49.4198 54.4555 49.4998 54.4982 49.5211C54.5409 49.5318 54.6262 49.5051 54.7542 49.4411C54.8929 49.3771 55.0369 49.3238 55.1862 49.2811L55.4262 49.2011L55.5062 48.6411L55.5862 48.0811ZM55.3782 50.3851C55.3782 50.2571 55.3569 50.1824 55.3142 50.1611C55.2715 50.1398 55.1915 50.1664 55.0742 50.2411C54.9995 50.3051 54.9035 50.3371 54.7862 50.3371H54.6262L54.6582 50.7371C54.6795 51.0038 54.7062 51.1531 54.7382 51.1851C54.7702 51.2171 54.8715 51.2064 55.0422 51.1531C55.1595 51.1104 55.2289 51.0731 55.2502 51.0411C55.2822 51.0091 55.3089 50.9451 55.3302 50.8491C55.3622 50.6998 55.3782 50.5451 55.3782 50.3851ZM55.1702 43.8731C55.2342 43.7878 55.2875 43.7451 55.3302 43.7451C55.3729 43.7451 55.4422 43.7824 55.5382 43.8571C55.6555 43.9318 55.7675 43.9904 55.8742 44.0331C55.9809 44.0651 56.0982 44.1131 56.2262 44.1771C56.3115 44.2304 56.3595 44.2838 56.3702 44.3371C56.3915 44.3798 56.4075 44.4811 56.4182 44.6411C56.4289 44.9824 56.4449 45.1851 56.4662 45.2491C56.4982 45.3131 56.5729 45.3504 56.6902 45.3611C57.4902 45.4144 58.1675 45.5051 58.7222 45.6331C59.0635 45.7184 59.3249 45.7611 59.5062 45.7611C59.6875 45.7611 59.8262 45.7931 59.9222 45.8571C60.0182 45.9104 60.2369 45.9744 60.5782 46.0491C61.1009 46.1344 61.4209 46.2731 61.5382 46.4651C61.6449 46.6251 61.6502 46.8384 61.5542 47.1051C61.5115 47.2438 61.4262 47.3664 61.2982 47.4731C61.1702 47.5798 61.0369 47.6331 60.8982 47.6331C60.7809 47.6331 60.6582 47.5851 60.5302 47.4891C60.4129 47.3824 60.3382 47.3291 60.3062 47.3291C60.2742 47.3291 60.0715 47.3718 59.6982 47.4571C59.3355 47.5424 59.0955 47.6011 58.9782 47.6331C58.7649 47.7078 58.6315 47.7184 58.5782 47.6651C58.5355 47.6011 58.5835 47.4998 58.7222 47.3611C58.8182 47.2651 58.8822 47.1851 58.9142 47.1211L59.0742 46.8171C59.1489 46.6891 59.1702 46.5984 59.1382 46.5451C59.1062 46.4918 59.0049 46.4491 58.8342 46.4171C58.6742 46.3958 58.5302 46.3478 58.4022 46.2731C58.2849 46.2198 58.0822 46.1611 57.7942 46.0971C57.5062 46.0331 57.2769 46.0011 57.1062 46.0011C56.6582 46.0011 56.3915 46.0864 56.3062 46.2571C56.2315 46.3744 56.1569 46.4384 56.0822 46.4491C56.0075 46.4491 55.8955 46.3958 55.7462 46.2891C55.5862 46.1824 55.4262 46.1291 55.2662 46.1291C55.0849 46.1291 54.8395 46.1718 54.5302 46.2571C54.2209 46.3424 53.9595 46.4331 53.7462 46.5291C53.4689 46.6678 53.3089 46.8011 53.2662 46.9291C53.2235 47.0571 53.1755 47.1371 53.1222 47.1691C53.0795 47.2011 52.9942 47.2171 52.8662 47.2171L52.6262 47.2011L52.5782 47.8731C52.5462 48.3211 52.5195 48.5984 52.4982 48.7051C52.4875 48.8118 52.4822 48.9131 52.4822 49.0091C52.4822 49.1051 52.3809 49.2171 52.1782 49.3451L51.8902 49.5371L51.6662 49.4091C51.4849 49.3131 51.3675 49.1904 51.3142 49.0411C51.2609 48.8918 51.2342 48.6251 51.2342 48.2411C51.2342 47.9211 51.2395 47.7184 51.2502 47.6331C51.2715 47.5478 51.3195 47.4464 51.3942 47.3291C51.5115 47.1798 51.6289 46.9878 51.7462 46.7531C51.8315 46.5611 51.9489 46.3798 52.0982 46.2091C52.2582 46.0278 52.3755 45.9371 52.4502 45.9371C52.5035 45.9371 52.5302 45.9904 52.5302 46.0971C52.5302 46.2038 52.5462 46.2571 52.5782 46.2571C52.6102 46.2571 52.8982 46.1664 53.4422 45.9851C53.9969 45.7931 54.4075 45.6704 54.6742 45.6171L55.1062 45.5371L55.0102 45.0571C54.9249 44.4918 54.9782 44.0971 55.1702 43.8731Z" fill="white"/>
<path d="M28.9681 48.4C29.0321 48.304 29.0961 48.256 29.1601 48.256C29.2241 48.256 29.3255 48.3253 29.4641 48.464C29.6135 48.6027 29.6881 48.6987 29.6881 48.752C29.6881 48.8053 29.7255 48.8587 29.8001 48.912C29.8748 48.9653 29.9228 49.216 29.9441 49.664C29.9761 50.1013 29.9655 50.3573 29.9121 50.432C29.8588 50.496 29.8055 50.816 29.7521 51.392C29.7201 51.808 29.6615 52.208 29.5761 52.592C29.4908 52.976 29.4108 53.2053 29.3361 53.28C29.2935 53.3227 29.2721 53.3867 29.2721 53.472C29.2721 53.5573 29.2028 53.7173 29.0641 53.952C28.9255 54.176 28.8561 54.304 28.8561 54.336C28.8561 54.368 28.7761 54.48 28.6161 54.672C28.4561 54.864 28.1788 55.0613 27.7841 55.264C27.3895 55.456 27.1921 55.568 27.1921 55.6C27.1921 55.632 27.0428 55.7493 26.7441 55.952C26.4455 56.144 26.2055 56.2293 26.0241 56.208L25.7681 56.192L26.2161 55.744C26.5148 55.4453 26.7388 55.232 26.8881 55.104C27.1121 54.9333 27.3895 54.5973 27.7201 54.096C28.0615 53.584 28.2321 53.248 28.2321 53.088C28.2321 53.024 28.2641 52.9493 28.3281 52.864C28.3921 52.7787 28.4241 52.688 28.4241 52.592C28.4348 52.4853 28.4721 52.352 28.5361 52.192C28.6001 52.032 28.6748 51.3333 28.7601 50.096C28.8241 49.0933 28.8935 48.528 28.9681 48.4ZM24.7761 48.128C25.2988 48.0853 25.7255 48.1387 26.0561 48.288C26.2161 48.3627 26.3121 48.4533 26.3441 48.56C26.3761 48.6667 26.3441 48.816 26.2481 49.008C26.1948 49.1787 26.1201 49.472 26.0241 49.888C25.9388 50.272 25.8268 50.6827 25.6881 51.12C25.5495 51.5467 25.4481 51.7973 25.3841 51.872C25.3308 51.9467 25.2348 51.9627 25.0961 51.92C24.9681 51.8667 24.9041 51.824 24.9041 51.792C24.9041 51.7493 24.8775 51.728 24.8241 51.728C24.7388 51.728 24.5841 51.5893 24.3601 51.312C24.1361 51.024 24.0401 50.8427 24.0721 50.768C24.0828 50.7147 24.1681 50.688 24.3281 50.688C24.5308 50.688 24.6695 50.6133 24.7441 50.464C24.8188 50.3147 24.8828 49.9787 24.9361 49.456C24.9681 49.264 24.9735 49.1413 24.9521 49.088C24.9415 49.0347 24.9095 48.9973 24.8561 48.976C24.7175 48.9013 24.4561 48.9387 24.0721 49.088L23.6881 49.216L23.7041 49.552C23.7148 49.776 23.6935 50.08 23.6401 50.464C23.5655 50.8907 23.5335 51.4133 23.5441 52.032C23.5548 52.6507 23.6081 53.0293 23.7041 53.168C23.7575 53.264 23.8055 53.328 23.8481 53.36C23.8908 53.3813 23.9548 53.3867 24.0401 53.376L24.8241 53.232C25.2295 53.168 25.4748 53.0933 25.5601 53.008C25.6241 52.944 25.6615 52.9173 25.6721 52.928C25.6935 52.9387 25.7255 52.9813 25.7681 53.056C25.8215 53.1627 25.8961 53.2213 25.9921 53.232C26.1948 53.2747 26.3495 53.456 26.4561 53.776C26.5948 54.192 26.5948 54.4533 26.4561 54.56C26.3921 54.624 26.0935 54.672 25.5601 54.704C25.0375 54.736 24.6961 54.784 24.5361 54.848C24.2588 54.9333 23.9815 54.88 23.7041 54.688C23.4375 54.4853 23.2295 54.1973 23.0801 53.824C22.9948 53.6107 22.9361 53.4027 22.9041 53.2C22.8828 52.9867 22.8561 52.5493 22.8241 51.888C22.7601 50.2667 22.8188 49.3547 23.0001 49.152C23.0748 49.0773 23.1121 48.9867 23.1121 48.88C23.1121 48.7627 23.2081 48.6507 23.4001 48.544C23.6028 48.4373 23.7255 48.384 23.7681 48.384C23.8108 48.384 23.9015 48.3467 24.0401 48.272C24.1788 48.1973 24.4241 48.1493 24.7761 48.128ZM21.8161 46.928C21.8695 46.832 21.9068 46.784 21.9281 46.784C21.9495 46.7733 21.9975 46.784 22.0721 46.816C22.1681 46.8907 22.2695 47.008 22.3761 47.168C22.4615 47.296 22.5095 47.4027 22.5201 47.488C22.5415 47.5627 22.5361 47.728 22.5041 47.984C22.4828 48.3253 22.4401 48.6027 22.3761 48.816C22.2588 49.2213 22.1521 49.6587 22.0561 50.128C21.9921 50.4587 21.8641 51.0347 21.6721 51.856C21.6401 51.9947 21.5175 52.272 21.3041 52.688C21.1015 53.104 20.9681 53.3387 20.9041 53.392C20.8615 53.4133 20.7921 53.5147 20.6961 53.696C20.6108 53.8667 20.4988 54.032 20.3601 54.192C20.2215 54.3413 20.1148 54.4693 20.0401 54.576C19.9655 54.672 19.8321 54.7307 19.6401 54.752C19.5121 54.7733 19.4321 54.7787 19.4001 54.768C19.3788 54.7467 19.3681 54.6933 19.3681 54.608C19.3681 54.48 19.4375 54.3147 19.5761 54.112C19.7148 53.8987 19.7841 53.7813 19.7841 53.76C19.7841 53.7387 19.8481 53.5787 19.9761 53.28C20.1148 52.9813 20.1841 52.8 20.1841 52.736C20.1841 52.672 20.2428 52.48 20.3601 52.16C20.4881 51.84 20.5681 51.6 20.6001 51.44C20.6428 51.28 20.6855 51.1307 20.7281 50.992C20.8028 50.7787 20.9201 50.352 21.0801 49.712C21.1441 49.4987 21.1975 49.2747 21.2401 49.04C21.3041 48.6133 21.3948 48.2293 21.5121 47.888C21.5655 47.7387 21.6135 47.5787 21.6561 47.408C21.6988 47.2267 21.7521 47.0667 21.8161 46.928ZM25.0321 44.912C25.0748 44.8587 25.2028 44.8853 25.4161 44.992C25.6295 45.0987 25.7361 45.184 25.7361 45.248C25.7361 45.28 25.7735 45.3653 25.8481 45.504C25.9121 45.6427 25.9281 45.7813 25.8961 45.92C25.8748 46.048 25.8108 46.128 25.7041 46.16C25.5975 46.1813 25.3095 46.1813 24.8401 46.16C24.3708 46.128 24.0081 46.16 23.7521 46.256C23.1975 46.4373 22.7388 46.3893 22.3761 46.112C22.2908 46.048 22.2535 45.936 22.2641 45.776C22.2748 45.616 22.3335 45.5093 22.4401 45.456C22.6001 45.3493 22.8828 45.2427 23.2881 45.136C23.7041 45.0293 24.0668 44.9653 24.3761 44.944C24.7921 44.9333 25.0108 44.9227 25.0321 44.912ZM28.1201 44.384C28.3655 44.3413 28.7121 44.2613 29.1601 44.144C29.6188 44.016 30.0668 43.9307 30.5041 43.888C30.9521 43.8453 31.3521 43.808 31.7041 43.776C32.0561 43.7333 32.2695 43.7067 32.3441 43.696C32.4188 43.696 32.5148 43.744 32.6321 43.84C32.7495 43.9253 32.8081 44.0053 32.8081 44.08C32.8081 44.1547 32.8775 44.272 33.0161 44.432C33.1228 44.56 33.1868 44.704 33.2081 44.864C33.2401 45.0133 33.2135 45.1253 33.1281 45.2C33.0108 45.296 32.2481 45.3227 30.8401 45.28L30.1681 45.264L29.7041 45.776C29.3841 46.1067 29.2188 46.2827 29.2081 46.304C29.2508 46.4 29.5015 46.4533 29.9601 46.464C30.3655 46.464 30.7601 46.5227 31.1441 46.64C31.5388 46.7573 31.8268 46.912 32.0081 47.104C32.0188 47.1147 32.0295 47.12 32.0401 47.12C32.1041 47.184 32.1361 47.3547 32.1361 47.632C32.1468 47.9093 32.1468 48.8747 32.1361 50.528C32.1255 50.816 32.1201 51.04 32.1201 51.2C32.1201 51.3387 32.1201 51.664 32.1201 52.176C32.1308 52.5067 32.1201 52.7413 32.0881 52.88C32.0668 53.0187 32.0188 53.2 31.9441 53.424C31.8055 53.744 31.7041 53.9413 31.6401 54.016C31.5868 54.1013 31.5655 54.1707 31.5761 54.224C31.5868 54.2667 31.6561 54.32 31.7841 54.384C31.9121 54.4693 31.9761 54.5333 31.9761 54.576C31.9761 54.608 32.0988 54.704 32.3441 54.864C32.6428 55.0667 32.8455 55.3333 32.9521 55.664C33.0695 55.9947 33.0375 56.272 32.8561 56.496C32.7601 56.624 32.6855 56.7307 32.6321 56.816C32.5255 56.9973 32.3281 57.0293 32.0401 56.912C31.7948 56.7947 31.5921 56.6773 31.4321 56.56C31.2828 56.4427 30.9521 56.1333 30.4401 55.632C30.0561 55.2587 29.7628 54.9973 29.5601 54.848C29.4428 54.752 29.3628 54.6773 29.3201 54.624C29.2881 54.56 29.2775 54.4853 29.2881 54.4L29.3041 54.192H29.7201C30.0081 54.192 30.2428 54.2133 30.4241 54.256C30.6268 54.288 30.7228 54.272 30.7121 54.208C30.7121 54.1333 30.5735 53.968 30.2961 53.712C30.0081 53.4453 29.8695 53.28 29.8801 53.216C29.9015 53.1413 29.8748 53.0933 29.8001 53.072C29.6188 53.008 29.6081 52.9547 29.7681 52.912C29.8428 52.9013 29.9388 52.9013 30.0561 52.912C30.3121 52.944 30.4508 52.928 30.4721 52.864C30.5041 52.8 30.5521 52.768 30.6161 52.768C30.8188 52.768 30.8935 52.2293 30.8401 51.152L30.7441 48.832C30.7121 48.0107 30.6641 47.552 30.6001 47.456C30.5575 47.392 30.4881 47.3493 30.3921 47.328C30.3068 47.296 30.1095 47.2747 29.8001 47.264C29.0748 47.2107 28.5841 47.28 28.3281 47.472C28.2641 47.5147 28.2321 47.552 28.2321 47.584C28.2321 47.6053 28.2588 47.6693 28.3121 47.776C28.3761 47.872 28.4028 47.9413 28.3921 47.984C28.3921 48.0267 28.3388 48.112 28.2321 48.24C28.1361 48.368 28.0775 48.4747 28.0561 48.56C28.0455 48.6453 28.0401 48.8587 28.0401 49.2C28.0401 49.6693 28.0188 49.9147 27.9761 49.936C27.9548 49.968 27.9335 50.1067 27.9121 50.352C27.8908 50.5867 27.8801 50.7893 27.8801 50.96C27.8908 51.152 27.8908 51.3707 27.8801 51.616C27.8801 51.6587 27.8961 51.8667 27.9281 52.24C27.9601 52.6027 27.9335 52.9067 27.8481 53.152C27.7628 53.3973 27.7041 53.5253 27.6721 53.536C27.6508 53.536 27.5815 53.5413 27.4641 53.552C27.3575 53.5627 27.2988 53.5947 27.2881 53.648C27.2775 53.6907 27.2241 53.7013 27.1281 53.68C27.0321 53.6587 26.9841 53.632 26.9841 53.6C26.9841 53.5467 26.9521 53.52 26.8881 53.52C26.8028 53.52 26.7388 53.4613 26.6961 53.344C26.6535 53.2267 26.6535 53.0987 26.6961 52.96C26.7388 52.8213 26.7708 52.528 26.7921 52.08C26.8241 51.6213 26.8188 51.3653 26.7761 51.312C26.7441 51.248 26.7495 51.2 26.7921 51.168C26.8455 51.1253 26.8828 50.9707 26.9041 50.704C26.9255 50.4373 26.9361 50.272 26.9361 50.208C26.9361 50.1333 26.9201 49.8827 26.8881 49.456C26.8561 49.0293 26.8615 48.8 26.9041 48.768C26.9575 48.736 26.9841 48.5653 26.9841 48.256C26.9841 47.936 27.0215 47.6373 27.0961 47.36C27.1601 47.1573 27.2081 47.0347 27.2401 46.992C27.2721 46.9493 27.3468 46.9173 27.4641 46.896C27.6668 46.864 27.8161 46.8053 27.9121 46.72C28.0081 46.6347 28.1361 46.4373 28.2961 46.128C28.4775 45.7227 28.5628 45.5147 28.5521 45.504C28.5415 45.4933 28.3815 45.5253 28.0721 45.6C27.7628 45.6747 27.5548 45.7333 27.4481 45.776C27.3628 45.808 27.2881 45.8187 27.2241 45.808C27.1601 45.7867 27.0428 45.712 26.8721 45.584C26.5735 45.3707 26.4135 45.2053 26.3921 45.088C26.3708 44.9707 26.4935 44.848 26.7601 44.72C27.0268 44.592 27.4801 44.48 28.1201 44.384Z" fill="white"/>
<path d="M14.264 46.4011C14.8507 46.3478 15.416 46.3851 15.96 46.5131C16.5147 46.6304 16.936 46.8064 17.224 47.0411C17.3413 47.1264 17.4053 47.1958 17.416 47.2491C17.4373 47.2918 17.4373 47.4038 17.416 47.5851C17.384 47.8198 17.3573 48.0278 17.336 48.2091C17.3253 48.3904 17.304 48.5771 17.272 48.7691C17.24 48.9504 17.224 49.3184 17.224 49.8731C17.2347 50.4278 17.208 50.7318 17.144 50.7851C17.0907 50.8384 17.0693 51.0838 17.08 51.5211C17.144 53.1211 17.1973 54.0864 17.24 54.4171C17.2933 54.6838 17.3253 55.0678 17.336 55.5691C17.336 55.9424 17.3253 56.1878 17.304 56.3051C17.2933 56.4118 17.2347 56.5718 17.128 56.7851C16.9787 57.0624 16.8933 57.2384 16.872 57.3131C16.8187 57.4411 16.728 57.5744 16.6 57.7131C16.4827 57.8518 16.3867 57.9211 16.312 57.9211C16.28 57.9211 16.216 57.9744 16.12 58.0811C15.992 58.1878 15.848 58.2304 15.688 58.2091C15.5387 58.1984 15.464 58.1238 15.464 57.9851C15.464 57.8571 15.3893 57.7131 15.24 57.5531C15.1013 57.4038 14.9413 57.2918 14.76 57.2171C14.5147 57.1104 14.3013 56.9771 14.12 56.8171C14.0027 56.7211 13.9333 56.6518 13.912 56.6091C13.8907 56.5558 13.9013 56.5024 13.944 56.4491C14.04 56.2891 14.3013 56.1718 14.728 56.0971C14.9947 56.0438 15.1707 55.9798 15.256 55.9051C15.3413 55.8198 15.384 55.6864 15.384 55.5051L15.368 55.2171L15.272 55.4411C15.1973 55.6118 15.0693 55.7291 14.888 55.7931C14.7067 55.8464 14.36 55.8838 13.848 55.9051L13 55.9211L12.776 56.1771C12.616 56.3584 12.5093 56.4918 12.456 56.5771C12.3707 56.6624 12.2693 56.6944 12.152 56.6731C12.0453 56.6518 11.9333 56.5771 11.816 56.4491C11.7093 56.3104 11.64 56.1504 11.608 55.9691C11.5547 55.7131 11.5387 55.5744 11.56 55.5531C11.592 55.5318 11.5813 55.4624 11.528 55.3451C11.464 55.1851 11.4267 55.0038 11.416 54.8011C11.416 54.5984 11.4427 54.4384 11.496 54.3211C11.5493 54.1931 11.6027 53.8891 11.656 53.4091C11.72 52.9184 11.784 52.4331 11.848 51.9531C11.9227 51.4731 11.9547 51.0198 11.944 50.5931C11.944 50.1558 11.9493 49.5638 11.96 48.8171C11.9813 48.0598 11.976 47.6811 11.944 47.6811C11.912 47.6811 11.8907 47.6651 11.88 47.6331C11.88 47.6011 11.8853 47.5584 11.896 47.5051C11.9067 47.4518 11.928 47.3931 11.96 47.3291C12.0027 47.2224 12.168 47.0838 12.456 46.9131C12.744 46.7318 13 46.6091 13.224 46.5451C13.4693 46.4918 13.816 46.4438 14.264 46.4011ZM14.968 47.1051C14.5307 46.9984 14.0293 46.9984 13.464 47.1051C12.8133 47.2331 12.4933 47.3931 12.504 47.5851C12.504 47.6491 12.5627 47.7024 12.68 47.7451C12.8507 47.8304 12.8667 47.9264 12.728 48.0331C12.6747 48.0864 12.648 48.1558 12.648 48.2411C12.648 48.3158 12.6373 48.5504 12.616 48.9451C12.6053 49.3398 12.616 49.5371 12.648 49.5371C12.68 49.5371 12.7227 49.5051 12.776 49.4411C12.84 49.3664 12.9093 49.3291 12.984 49.3291C13.0693 49.3291 13.208 49.2864 13.4 49.2011C13.6027 49.1158 13.8213 49.0571 14.056 49.0251C14.2907 48.9931 14.424 49.0038 14.456 49.0571C14.488 49.1104 14.5467 49.1371 14.632 49.1371C14.7387 49.1371 14.824 49.1798 14.888 49.2651C14.952 49.3504 14.984 49.4678 14.984 49.6171C14.984 49.8091 14.9307 49.9531 14.824 50.0491C14.728 50.1344 14.552 50.1984 14.296 50.2411C13.9973 50.2944 13.7573 50.3744 13.576 50.4811C13.2773 50.6624 13.0213 50.6838 12.808 50.5451C12.7547 50.5024 12.7067 50.4811 12.664 50.4811C12.632 50.4704 12.6053 50.4864 12.584 50.5291C12.5733 50.5611 12.5627 50.6144 12.552 50.6891C12.5413 50.7638 12.536 50.8758 12.536 51.0251C12.5147 51.2918 12.488 51.4784 12.456 51.5851C12.4347 51.6918 12.4613 51.7398 12.536 51.7291C12.6107 51.7291 12.7707 51.6971 13.016 51.6331C13.2827 51.5691 13.6027 51.5371 13.976 51.5371C14.36 51.5371 14.6 51.5904 14.696 51.6971C14.8027 51.7931 14.7973 51.9851 14.68 52.2731C14.6373 52.4011 14.5573 52.4971 14.44 52.5611C14.3333 52.6144 14.152 52.6411 13.896 52.6411C13.5333 52.6411 13.2827 52.7264 13.144 52.8971C13.0907 52.9718 13 52.9984 12.872 52.9771C12.616 52.9238 12.472 52.9184 12.44 52.9611C12.4187 52.9931 12.408 53.2064 12.408 53.6011C12.3867 54.3051 12.424 54.7264 12.52 54.8651C12.616 55.0038 12.8773 55.0304 13.304 54.9451C13.6667 54.8811 14.0347 54.8331 14.408 54.8011C14.792 54.7691 15.0427 54.7958 15.16 54.8811C15.2773 54.9558 15.352 54.9771 15.384 54.9451C15.416 54.9131 15.432 53.6864 15.432 51.2651C15.4427 48.8438 15.432 47.5584 15.4 47.4091C15.3893 47.3344 15.3573 47.2811 15.304 47.2491C15.2613 47.2064 15.1493 47.1584 14.968 47.1051ZM8.968 44.3211C9.032 44.2998 9.096 44.2944 9.16 44.3051C9.224 44.3158 9.256 44.3478 9.256 44.4011C9.256 44.4331 9.288 44.4491 9.352 44.4491C9.416 44.4491 9.50667 44.5184 9.624 44.6571C9.688 44.7744 9.73067 44.8864 9.752 44.9931C9.77333 45.0998 9.77867 45.4251 9.768 45.9691C9.75733 46.6518 9.77867 47.0144 9.832 47.0571C9.87467 47.0678 9.97067 47.0358 10.12 46.9611C10.2587 46.8864 10.3867 46.8651 10.504 46.8971C10.6213 46.9291 10.776 46.9611 10.968 46.9931C11.1387 47.0358 11.272 47.1104 11.368 47.2171C11.4747 47.3131 11.5173 47.4144 11.496 47.5211C11.464 47.6171 11.4 47.7558 11.304 47.9371C11.2293 48.1184 11.144 48.2198 11.048 48.2411C10.9627 48.2518 10.7867 48.2091 10.52 48.1131C10.008 47.9104 9.75733 47.9158 9.768 48.1291C9.768 48.1931 9.78933 48.2624 9.832 48.3371C9.88533 48.4118 9.912 48.4704 9.912 48.5131C9.912 48.5558 9.87467 48.6251 9.8 48.7211C9.71467 48.8811 9.66667 49.1851 9.656 49.6331L9.624 50.3051L9.88 50.4651C10.0507 50.5824 10.2267 50.6784 10.408 50.7531C10.5893 50.8278 10.7067 50.9504 10.76 51.1211C10.8133 51.2811 10.824 51.4198 10.792 51.5371C10.76 51.6544 10.68 51.8091 10.552 52.0011C10.424 52.1824 10.3013 52.2944 10.184 52.3371C10.0773 52.3691 9.93333 52.3424 9.752 52.2571C9.592 52.1611 9.512 52.1344 9.512 52.1771C9.52267 52.2411 9.50133 52.3318 9.448 52.4491C9.39467 52.5558 9.35733 52.8491 9.336 53.3291C9.32533 53.8091 9.304 54.0864 9.272 54.1611C9.24 54.2251 9.224 54.5131 9.224 55.0251C9.23467 55.5264 9.21867 55.8144 9.176 55.8891C9.144 55.9638 9.11733 56.1344 9.096 56.4011C9.08533 56.6571 9.032 56.8171 8.936 56.8811C8.84 56.9344 8.76533 57.0464 8.712 57.2171C8.63733 57.3984 8.56267 57.4998 8.488 57.5211C8.424 57.5531 8.328 57.5318 8.2 57.4571C8.11467 57.4144 8.05067 57.3451 8.008 57.2491C7.96533 57.1531 7.912 56.9771 7.848 56.7211C7.752 56.3158 7.72533 56.0811 7.768 56.0171C7.864 55.8144 7.94933 55.2278 8.024 54.2571C8.056 53.9371 8.08267 53.5531 8.104 53.1051C8.12533 52.6571 8.136 52.2944 8.136 52.0171C8.14667 51.7398 8.14667 51.5798 8.136 51.5371C8.104 51.5371 7.992 51.6118 7.8 51.7611C7.608 51.9104 7.50667 52.0011 7.496 52.0331C7.47467 52.0651 7.43733 52.0811 7.384 52.0811C7.33067 52.0811 7.29333 52.1078 7.272 52.1611C7.24 52.2358 6.968 52.4651 6.456 52.8491C6.296 52.9558 6.07733 53.1264 5.8 53.3611C5.52267 53.5958 5.25067 53.7984 4.984 53.9691L4.568 54.2411L4.616 54.0171C4.648 53.8678 4.664 53.7718 4.664 53.7291C4.664 53.6758 4.91467 53.3878 5.416 52.8651C5.928 52.3318 6.28 51.9158 6.472 51.6171L7.256 50.4491C7.81067 49.5958 8.136 49.0891 8.232 48.9291C8.328 48.7691 8.376 48.6038 8.376 48.4331C8.376 48.2198 8.35467 48.1131 8.312 48.1131C8.216 48.1131 8.02933 48.1718 7.752 48.2891C7.47467 48.4064 7.29867 48.5024 7.224 48.5771C7.05333 48.7478 6.92 48.8438 6.824 48.8651C6.73867 48.8864 6.61067 48.8438 6.44 48.7371C6.28 48.6411 6.17333 48.5451 6.12 48.4491C6.07733 48.3424 6.06667 48.1931 6.088 48.0011C6.09867 47.8838 6.31733 47.7398 6.744 47.5691C7.18133 47.3984 7.58667 47.2864 7.96 47.2331C8.20533 47.2118 8.35467 47.1851 8.408 47.1531C8.46133 47.1211 8.52533 46.7211 8.6 45.9531C8.67467 45.1744 8.73333 44.7638 8.776 44.7211C8.82933 44.6678 8.856 44.6038 8.856 44.5291C8.856 44.4438 8.89333 44.3744 8.968 44.3211Z" fill="white"/>
<path d="M48.699 63V59.5H49.239V63H48.699ZM46.134 63V59.5H46.674V63H46.134ZM46.369 61.525V61.005H48.939V61.525H46.369ZM51.773 63.05C51.483 63.05 51.2246 62.9917 50.998 62.875C50.7746 62.755 50.598 62.5933 50.468 62.39C50.338 62.1833 50.273 61.9483 50.273 61.685C50.273 61.4217 50.338 61.1883 50.468 60.985C50.598 60.7783 50.7746 60.6167 50.998 60.5C51.2246 60.38 51.483 60.32 51.773 60.32C52.0596 60.32 52.3146 60.38 52.538 60.5C52.7646 60.6167 52.943 60.7783 53.073 60.985C53.203 61.1883 53.268 61.4217 53.268 61.685C53.268 61.9483 53.203 62.1833 53.073 62.39C52.943 62.5933 52.7646 62.755 52.538 62.875C52.3146 62.9917 52.0596 63.05 51.773 63.05ZM51.773 62.58C51.9563 62.58 52.1213 62.5417 52.268 62.465C52.418 62.385 52.5346 62.2783 52.618 62.145C52.7046 62.0083 52.7463 61.855 52.743 61.685C52.7463 61.5117 52.7046 61.3583 52.618 61.225C52.5346 61.0883 52.418 60.9817 52.268 60.905C52.1213 60.8283 51.9563 60.79 51.773 60.79C51.5896 60.79 51.423 60.83 51.273 60.91C51.123 60.9867 51.0046 61.0917 50.918 61.225C50.8346 61.3583 50.7946 61.5117 50.798 61.685C50.7946 61.855 50.8346 62.0083 50.918 62.145C51.0046 62.2783 51.123 62.385 51.273 62.465C51.423 62.5417 51.5896 62.58 51.773 62.58ZM54.2578 63V60.375H54.7778V61.015L54.6428 61.035C54.6695 60.955 54.7162 60.8733 54.7828 60.79C54.8495 60.7067 54.9328 60.6317 55.0328 60.565C55.1328 60.495 55.2428 60.4383 55.3628 60.395C55.4862 60.3517 55.6178 60.33 55.7578 60.33C55.9212 60.33 56.0678 60.3567 56.1978 60.41C56.3278 60.4633 56.4328 60.545 56.5128 60.655C56.5962 60.765 56.6512 60.9017 56.6778 61.065L56.5578 61.035L56.5928 60.95C56.6328 60.88 56.6878 60.81 56.7578 60.74C56.8312 60.6667 56.9162 60.6 57.0128 60.54C57.1128 60.4767 57.2195 60.4267 57.3328 60.39C57.4462 60.35 57.5628 60.33 57.6828 60.33C57.9162 60.33 58.1045 60.375 58.2478 60.465C58.3912 60.555 58.4962 60.6833 58.5628 60.85C58.6295 61.0167 58.6628 61.215 58.6628 61.445V63H58.1428V61.495C58.1428 61.345 58.1212 61.22 58.0778 61.12C58.0378 61.0167 57.9745 60.9383 57.8878 60.885C57.8012 60.8317 57.6878 60.805 57.5478 60.805C57.4312 60.805 57.3212 60.825 57.2178 60.865C57.1178 60.9017 57.0295 60.955 56.9528 61.025C56.8762 61.0917 56.8162 61.17 56.7728 61.26C56.7328 61.35 56.7128 61.4467 56.7128 61.55V63H56.1928V61.485C56.1928 61.345 56.1695 61.225 56.1228 61.125C56.0762 61.0217 56.0062 60.9433 55.9128 60.89C55.8195 60.8333 55.7012 60.805 55.5578 60.805C55.4445 60.805 55.3412 60.825 55.2478 60.865C55.1545 60.905 55.0712 60.9583 54.9978 61.025C54.9278 61.0917 54.8728 61.1667 54.8328 61.25C54.7962 61.33 54.7778 61.4133 54.7778 61.5V63H54.2578ZM61.1681 63.05C60.8681 63.05 60.6014 62.9933 60.3681 62.88C60.1347 62.7633 59.9514 62.605 59.8181 62.405C59.6881 62.205 59.6231 61.975 59.6231 61.715C59.6231 61.5017 59.6614 61.31 59.7381 61.14C59.8147 60.97 59.9197 60.8233 60.0531 60.7C60.1897 60.5767 60.3497 60.4817 60.5331 60.415C60.7164 60.3483 60.9131 60.315 61.1231 60.315C61.3131 60.315 61.4897 60.3467 61.6531 60.41C61.8197 60.4733 61.9647 60.5617 62.0881 60.675C62.2114 60.7883 62.3064 60.9233 62.3731 61.08C62.4431 61.2333 62.4764 61.4033 62.4731 61.59L62.4681 61.83H60.0431L59.9281 61.42H62.0231L61.9481 61.485V61.365C61.9347 61.255 61.8881 61.1567 61.8081 61.07C61.7281 60.9833 61.6281 60.915 61.5081 60.865C61.3881 60.815 61.2597 60.79 61.1231 60.79C60.9231 60.79 60.7481 60.8217 60.5981 60.885C60.4514 60.9483 60.3364 61.0467 60.2531 61.18C60.1731 61.31 60.1331 61.4767 60.1331 61.68C60.1331 61.8633 60.1797 62.0217 60.2731 62.155C60.3664 62.2883 60.4964 62.3917 60.6631 62.465C60.8297 62.5383 61.0214 62.575 61.2381 62.575C61.4247 62.575 61.5864 62.5483 61.7231 62.495C61.8597 62.4417 61.9897 62.3683 62.1131 62.275L62.3581 62.65C62.2714 62.7233 62.1631 62.7917 62.0331 62.855C61.9031 62.915 61.7631 62.9633 61.6131 63C61.4664 63.0333 61.3181 63.05 61.1681 63.05Z" fill="white"/>
<path d="M7.512 63V59.5H8.052V63H7.512ZM7.727 61.53V61.01H9.797V61.53H7.727ZM7.752 60.02V59.5H10.022V60.02H7.752ZM11.0617 63V60.375H11.5817V61.25L11.4917 61.12C11.535 60.9733 11.6084 60.84 11.7117 60.72C11.815 60.5967 11.9334 60.5 12.0667 60.43C12.2 60.3567 12.3384 60.32 12.4817 60.32C12.565 60.32 12.645 60.3283 12.7217 60.345C12.8017 60.3617 12.8634 60.3833 12.9067 60.41L12.7717 60.96C12.7184 60.93 12.655 60.9067 12.5817 60.89C12.5117 60.8733 12.4434 60.865 12.3767 60.865C12.2634 60.865 12.1584 60.8867 12.0617 60.93C11.965 60.97 11.88 61.025 11.8067 61.095C11.7367 61.165 11.6817 61.245 11.6417 61.335C11.6017 61.4217 11.5817 61.5133 11.5817 61.61V63H11.0617ZM13.8802 63V60.375H14.3952V63H13.8802ZM14.1302 59.775C14.0202 59.775 13.9352 59.7467 13.8752 59.69C13.8152 59.6333 13.7852 59.5533 13.7852 59.45C13.7852 59.3533 13.8152 59.275 13.8752 59.215C13.9386 59.155 14.0236 59.125 14.1302 59.125C14.2402 59.125 14.3252 59.1533 14.3852 59.21C14.4452 59.2667 14.4752 59.3467 14.4752 59.45C14.4752 59.5467 14.4436 59.625 14.3802 59.685C14.3202 59.745 14.2369 59.775 14.1302 59.775ZM16.9894 63.05C16.6894 63.05 16.4228 62.9933 16.1894 62.88C15.9561 62.7633 15.7728 62.605 15.6394 62.405C15.5094 62.205 15.4444 61.975 15.4444 61.715C15.4444 61.5017 15.4828 61.31 15.5594 61.14C15.6361 60.97 15.7411 60.8233 15.8744 60.7C16.0111 60.5767 16.1711 60.4817 16.3544 60.415C16.5378 60.3483 16.7344 60.315 16.9444 60.315C17.1344 60.315 17.3111 60.3467 17.4744 60.41C17.6411 60.4733 17.7861 60.5617 17.9094 60.675C18.0328 60.7883 18.1278 60.9233 18.1944 61.08C18.2644 61.2333 18.2978 61.4033 18.2944 61.59L18.2894 61.83H15.8644L15.7494 61.42H17.8444L17.7694 61.485V61.365C17.7561 61.255 17.7094 61.1567 17.6294 61.07C17.5494 60.9833 17.4494 60.915 17.3294 60.865C17.2094 60.815 17.0811 60.79 16.9444 60.79C16.7444 60.79 16.5694 60.8217 16.4194 60.885C16.2728 60.9483 16.1578 61.0467 16.0744 61.18C15.9944 61.31 15.9544 61.4767 15.9544 61.68C15.9544 61.8633 16.0011 62.0217 16.0944 62.155C16.1878 62.2883 16.3178 62.3917 16.4844 62.465C16.6511 62.5383 16.8428 62.575 17.0594 62.575C17.2461 62.575 17.4078 62.5483 17.5444 62.495C17.6811 62.4417 17.8111 62.3683 17.9344 62.275L18.1794 62.65C18.0928 62.7233 17.9844 62.7917 17.8544 62.855C17.7244 62.915 17.5844 62.9633 17.4344 63C17.2878 63.0333 17.1394 63.05 16.9894 63.05ZM19.3576 63V60.375H19.8726V60.995L19.7426 61.035C19.7926 60.915 19.8709 60.8017 19.9776 60.695C20.0843 60.585 20.2109 60.495 20.3576 60.425C20.5076 60.355 20.6659 60.32 20.8326 60.32C21.0626 60.32 21.2543 60.365 21.4076 60.455C21.5643 60.5417 21.6809 60.6667 21.7576 60.83C21.8343 60.9933 21.8726 61.19 21.8726 61.42V63H21.3576V61.475C21.3576 61.325 21.3293 61.2 21.2726 61.1C21.2193 60.9967 21.1409 60.92 21.0376 60.87C20.9376 60.8167 20.8193 60.7917 20.6826 60.795C20.5659 60.795 20.4576 60.815 20.3576 60.855C20.2609 60.895 20.1759 60.9483 20.1026 61.015C20.0293 61.0817 19.9726 61.1567 19.9326 61.24C19.8926 61.32 19.8726 61.4033 19.8726 61.49V63H19.6176C19.5576 63 19.5059 63 19.4626 63C19.4193 63 19.3843 63 19.3576 63ZM24.2511 63.05C23.9811 63.05 23.7427 62.9917 23.5361 62.875C23.3294 62.755 23.1677 62.5933 23.0511 62.39C22.9344 62.1833 22.8761 61.9483 22.8761 61.685C22.8761 61.4217 22.9344 61.1883 23.0511 60.985C23.1711 60.7783 23.3344 60.6167 23.5411 60.5C23.7511 60.38 23.9894 60.32 24.2561 60.32C24.4127 60.32 24.5594 60.3417 24.6961 60.385C24.8361 60.4283 24.9594 60.4867 25.0661 60.56C25.1761 60.63 25.2611 60.7083 25.3211 60.795C25.3811 60.8783 25.4111 60.9617 25.4111 61.045L25.2611 61.055V59.3H25.7761V63H25.2611V62.335L25.3611 62.35C25.3611 62.43 25.3294 62.51 25.2661 62.59C25.2061 62.67 25.1244 62.745 25.0211 62.815C24.9177 62.885 24.7994 62.9417 24.6661 62.985C24.5327 63.0283 24.3944 63.05 24.2511 63.05ZM24.3411 62.595C24.5244 62.595 24.6861 62.555 24.8261 62.475C24.9694 62.395 25.0811 62.2867 25.1611 62.15C25.2411 62.0133 25.2811 61.8583 25.2811 61.685C25.2811 61.5117 25.2411 61.3567 25.1611 61.22C25.0811 61.0833 24.9694 60.9767 24.8261 60.9C24.6861 60.82 24.5244 60.78 24.3411 60.78C24.1577 60.78 23.9944 60.82 23.8511 60.9C23.7111 60.9767 23.6011 61.0833 23.5211 61.22C23.4411 61.3567 23.4011 61.5117 23.4011 61.685C23.4011 61.8583 23.4411 62.0133 23.5211 62.15C23.6011 62.2867 23.7111 62.395 23.8511 62.475C23.9944 62.555 24.1577 62.595 24.3411 62.595ZM26.9842 63V59.3H27.4992V63H26.9842ZM29.1577 64.15L29.7577 62.925L29.7627 63.33L28.3077 60.375H28.9077L29.7127 62.105C29.7727 62.2183 29.826 62.33 29.8727 62.44C29.9194 62.5467 29.9527 62.6467 29.9727 62.74L29.8677 62.76C29.9044 62.6667 29.946 62.5633 29.9927 62.45C30.0394 62.3367 30.091 62.215 30.1477 62.085L30.8627 60.375H31.4677L30.2277 63.01L29.7077 64.15H29.1577Z" fill="white"/>
<path d="M64.5 18.0437V41.5H52.7224V37.1876H59.8211H60.3211V36.6876V20.4994V20.2498L60.1215 20.0998L44.2714 8.18488L43.971 7.95903L43.6705 8.18488L37.569 12.7717L37.0371 13.1715L37.5691 13.5711L43.5232 18.0437V41.5H37.6431H31.2456H23.4594V18.0437L29.4135 13.5711L29.9454 13.1715L29.4136 12.7717L23.312 8.18488L23.0116 7.95903L22.7112 8.18488L6.86107 20.0998L6.66151 20.2498V20.4994V36.6876V37.1876H7.16151H13.6944V41.5H2.5V18.0436L23.0116 2.6255L33.1996 10.2832L33.5001 10.5091L33.8006 10.2831L43.9799 2.62555L64.5 18.0437ZM39.3617 20.4994V20.2496L39.1619 20.0996L33.7915 16.0682L33.4911 15.8427L33.1908 16.0684L27.8291 20.0998L27.6296 20.2498V20.4994V36.6876V37.1876H28.1296H31.2544H37.6518H38.8617H39.3617V36.6876V20.4994Z" fill="white" stroke="#D9D9D9"/>
</svg>
