<svg width="36" height="32" viewBox="0 0 36 32" fill="none" xmlns="http://www.w3.org/2000/svg">
<path d="M25.5 7.61243C25.5 11.0761 20.9312 17.2485 18.925 19.7923C18.4437 20.4013 17.55 20.4013 17.075 19.7923C15.0688 17.2485 10.5 11.0761 10.5 7.61243C10.5 3.40656 13.8563 0 18 0C22.1438 0 25.5 3.40656 25.5 7.61243ZM26 12.7128C26.2188 12.275 26.4188 11.8373 26.6 11.406C26.6313 11.3298 26.6625 11.2474 26.6938 11.1712L33.9437 8.22777C34.9312 7.82811 36 8.56398 36 9.64241V26.8211C36 27.4428 35.625 28.001 35.0563 28.2358L26 31.9088V12.7128ZM8.6 8.77332C8.75 9.66778 9.05 10.5686 9.4 11.406C9.58125 11.8373 9.78125 12.275 10 12.7128V28.6608L2.05625 31.8897C1.06875 32.2894 0 31.5535 0 30.4751V13.2964C0 12.6747 0.375 12.1164 0.94375 11.8817L8.60625 8.77332H8.6ZM20.4875 21.061C21.3562 19.9572 22.7188 18.162 24 16.1764V31.9912L12 28.5085V16.1764C13.2813 18.162 14.6437 19.9572 15.5125 21.061C16.7937 22.685 19.2062 22.685 20.4875 21.061ZM18 9.64241C19.3813 9.64241 20.5 8.50689 20.5 7.10493C20.5 5.70298 19.3813 4.56746 18 4.56746C16.6188 4.56746 15.5 5.70298 15.5 7.10493C15.5 8.50689 16.6188 9.64241 18 9.64241Z" fill="#3E737C"/>
<path d="M25.5 7.61243C25.5 11.0761 20.9312 17.2485 18.925 19.7923C18.4438 20.4013 17.55 20.4013 17.075 19.7923C15.0688 17.2485 10.5 11.0761 10.5 7.61243C10.5 3.40656 13.8562 0 18 0C22.1438 0 25.5 3.40656 25.5 7.61243ZM18 9.64241C19.3813 9.64241 20.5 8.50689 20.5 7.10493C20.5 5.70298 19.3813 4.56746 18 4.56746C16.6187 4.56746 15.5 5.70298 15.5 7.10493C15.5 8.50689 16.6187 9.64241 18 9.64241Z" fill="#FF0000"/>
<path d="M25.5 7.61243C25.5 11.0761 20.9312 17.2485 18.925 19.7923C18.4438 20.4013 17.55 20.4013 17.075 19.7923C15.0688 17.2485 10.5 11.0761 10.5 7.61243C10.5 3.40656 13.8562 0 18 0C22.1438 0 25.5 3.40656 25.5 7.61243ZM18 9.64241C19.3813 9.64241 20.5 8.50689 20.5 7.10493C20.5 5.70298 19.3813 4.56746 18 4.56746C16.6187 4.56746 15.5 5.70298 15.5 7.10493C15.5 8.50689 16.6187 9.64241 18 9.64241Z" fill="black" fill-opacity="0.2"/>
</svg>
