<svg width="85" height="70" viewBox="0 0 85 70" fill="none" xmlns="http://www.w3.org/2000/svg">
<g clip-path="url(#clip0_67_116)">
<rect y="39.499" width="77.4842" height="34.4374" rx="4" transform="rotate(-30.6485 0 39.499)" fill="#A5FF00"/>
<path d="M82.2867 26.992L67.3937 19.2547L67.9782 3.02183C67.9914 2.63539 67.8994 2.25693 67.7114 1.92518C67.5235 1.59342 67.2463 1.32027 66.9084 1.13368C66.5704 0.947087 66.1838 0.853751 65.7881 0.863217C65.3923 0.872683 65.0017 0.984609 64.6561 1.18755L3.8926 37.1925C2.86022 37.8042 2.10132 38.7811 1.78284 39.9081C1.46437 41.0352 1.61241 42.2202 2.1944 43.2024L15.3608 65.4225C15.9428 66.4047 16.911 67.1037 18.0526 67.3656C19.1941 67.6276 20.4154 67.4311 21.4478 66.8194L82.2696 30.7798C82.6131 30.5762 82.8992 30.2897 83.0989 29.9495C83.2985 29.6092 83.4046 29.2273 83.4063 28.8426C83.4081 28.4579 83.3054 28.084 83.1087 27.7589C82.9121 27.4339 82.6285 27.1693 82.2867 26.992V26.992ZM32.7223 48.08L30.5424 49.3716L19.4357 45.095L24.2085 53.1498L22.0091 54.453L15.2175 42.9911L17.4168 41.6879L28.554 45.9715L23.7812 37.9167L25.9611 36.6251L32.7223 48.08ZM39.3589 31.1881L32.4884 35.2591L34.1233 38.0181L40.3514 34.3277L41.4486 36.1794L35.2205 39.8698L36.987 42.851L43.8574 38.78L44.9546 40.6317L35.8848 46.0059L29.1919 34.7106L38.2422 29.348L39.3589 31.1881ZM61.1552 31.1822L58.9559 32.4854L50.903 25.7737L52.9443 36.0975L50.7645 37.3892L40.0912 28.2524L42.4657 26.8454L49.8954 33.526L47.9932 23.5701L50.3677 22.1631L58.0699 28.6823L55.7978 18.9455L58.1918 17.527L61.1552 31.1822Z" fill="black"/>
</g>
<defs>
<clipPath id="clip0_67_116">
<rect y="39.499" width="77.4842" height="34.4374" rx="4" transform="rotate(-30.6485 0 39.499)" fill="white"/>
</clipPath>
</defs>
</svg>
