<svg width="30" height="30" viewBox="0 0 30 30" fill="none" xmlns="http://www.w3.org/2000/svg">
<path d="M25.5312 22.9465C26.1585 21.9628 26.5149 20.7794 26.5149 19.5247C26.5149 15.9604 23.6634 13.1089 20.0991 13.1089C16.5347 13.1089 13.6832 15.9604 13.6832 19.5247C13.6832 23.0891 16.5347 25.9406 20.0991 25.9406C21.3395 25.9406 22.5086 25.5842 23.4924 24.9711L27.9407 29.3481L29.9225 27.3663L25.5312 22.9465ZM20.0991 23.0891C19.1538 23.0891 18.2472 22.7136 17.5787 22.0451C16.9103 21.3767 16.5347 20.4701 16.5347 19.5247C16.5347 18.5794 16.9103 17.6728 17.5787 17.0044C18.2472 16.3359 19.1538 15.9604 20.0991 15.9604C21.0444 15.9604 21.951 16.3359 22.6195 17.0044C23.2879 17.6728 23.6634 18.5794 23.6634 19.5247C23.6634 20.4701 23.2879 21.3767 22.6195 22.0451C21.951 22.7136 21.0444 23.0891 20.0991 23.0891ZM5.12879 24.5148V13.1089H0.851562L15.109 0.277222L29.3664 13.1089H26.7716C25.0892 11.3552 22.7225 10.2574 20.0991 10.2574C14.9949 10.2574 10.8318 14.4206 10.8318 19.5247C10.8318 21.364 11.3735 23.0891 12.3003 24.5148H5.12879Z" fill="white"/>
</svg>
