<svg width="30" height="29" viewBox="0 0 30 29" fill="none" xmlns="http://www.w3.org/2000/svg">
<path d="M15 0.308411C7.09031 0.308411 0.65625 6.74247 0.65625 14.6522C0.65625 22.5618 7.09031 28.9959 15 28.9959C22.9097 28.9959 29.3437 22.5618 29.3437 14.6522C29.3437 6.74247 22.9097 0.308411 15 0.308411ZM15 26.5584C11.2303 26.5584 7.87031 24.7922 5.68781 22.049C7.20807 20.0598 9.32877 18.6134 11.7356 17.924C10.869 17.3735 10.1553 16.6132 9.66076 15.7135C9.16617 14.8138 8.90665 13.8038 8.90625 12.7772C8.90625 9.41716 11.64 6.68341 15 6.68341C18.36 6.68341 21.0938 9.41716 21.0938 12.7772C21.0929 13.804 20.8331 14.814 20.3384 15.7138C19.8436 16.6136 19.13 17.3741 18.2634 17.925C20.6708 18.6138 22.7919 20.0604 24.3122 22.05C22.1297 24.7922 18.7697 26.5584 15 26.5584Z" fill="black"/>
</svg>
