<svg width="15" height="15" viewBox="0 0 15 15" fill="none" xmlns="http://www.w3.org/2000/svg">
<g clip-path="url(#clip0_277_143)">
<path d="M14.2377 2.95728H11.4975C11.0765 2.95728 10.7353 3.29822 10.7353 3.71936V5.69767H8.75705C8.33591 5.69767 7.99472 6.03849 7.99472 6.45966V8.43809H6.01641C5.59527 8.43809 5.2542 8.77941 5.2542 9.20012V11.2738H3.18094C2.97864 11.2738 2.78478 11.354 2.6419 11.4968C2.4989 11.6396 2.4187 11.8344 2.4187 12.0359L2.41895 13.6303C2.41895 14.0519 2.76026 14.3928 3.18116 14.3928H14.2377C14.6589 14.3928 14.9999 14.0519 14.9999 13.6303V3.71933C15 3.29822 14.6589 2.95728 14.2377 2.95728Z" fill="black"/>
<path d="M10.2266 0.760775C10.0304 0.559679 9.70912 0.555815 9.50814 0.751469C6.24859 3.9267 3.14766 7.02801 0.148905 10.0265C0.0534895 10.1219 0 10.2515 0 10.386V13.8635C0 14.1437 0.227408 14.3717 0.508119 14.3717C0.788553 14.3717 1.01636 14.1438 1.01636 13.8635V10.5963C3.96645 7.64611 7.01643 4.5977 10.2171 1.47927C10.418 1.28364 10.4221 0.961747 10.2266 0.760775Z" fill="black"/>
</g>
<defs>
<clipPath id="clip0_277_143">
<rect width="15" height="15" fill="white"/>
</clipPath>
</defs>
</svg>
